<svg xmlns="http://www.w3.org/2000/svg" width="1800" height="720" viewBox="0 0 1800 720">
<defs><marker id="arrow" markerWidth="10" markerHeight="10" refX="8" refY="3" orient="auto"><path d="M0,0 L0,6 L9,3 z" fill="#16324F"/></marker></defs>
<rect width="100%" height="100%" fill="white"/><text x="80" y="72" font-family="Arial" font-size="34" font-weight="700" fill="#16324F">ExperienceEvo v4-clean: artifact-state experience retrieval</text>
<text x="80" y="112" font-family="Arial" font-size="19" fill="#657786">Dynamic experience evolution for long-horizon geospatial tool use</text>
<rect x="80" y="235" width="245" height="175" rx="18" fill="#168AAD" fill-opacity="0.12" stroke="#168AAD" stroke-width="4"/>
<text x="102" y="283" font-family="Arial" font-size="23" font-weight="700" fill="#16324F">Real rollouts</text>
<text x="102" y="323" font-family="Arial" font-size="17" fill="#657786">2000 LongCat trajectories</text>
<text x="102" y="350" font-family="Arial" font-size="17" fill="#657786">tool calls + artifacts</text>
<line x1="333" y1="322.5" x2="368" y2="322.5" stroke="#16324F" stroke-width="4" marker-end="url(#arrow)"/>
<rect x="380" y="235" width="245" height="175" rx="18" fill="#52B69A" fill-opacity="0.12" stroke="#52B69A" stroke-width="4"/>
<text x="402" y="283" font-family="Arial" font-size="23" font-weight="700" fill="#16324F">Transition mining</text>
<text x="402" y="323" font-family="Arial" font-size="17" fill="#657786">input/output artifacts</text>
<text x="402" y="350" font-family="Arial" font-size="17" fill="#657786">recovery + Q/N/R</text>
<line x1="633" y1="322.5" x2="668" y2="322.5" stroke="#16324F" stroke-width="4" marker-end="url(#arrow)"/>
<rect x="680" y="235" width="245" height="175" rx="18" fill="#16324F" fill-opacity="0.12" stroke="#16324F" stroke-width="4"/>
<text x="702" y="283" font-family="Arial" font-size="23" font-weight="700" fill="#16324F">State-constrained</text>
<text x="702" y="323" font-family="Arial" font-size="17" fill="#657786">precondition filter</text>
<text x="702" y="350" font-family="Arial" font-size="17" fill="#657786">BM25 + structured RRF</text>
<line x1="933" y1="322.5" x2="968" y2="322.5" stroke="#16324F" stroke-width="4" marker-end="url(#arrow)"/>
<rect x="980" y="235" width="245" height="175" rx="18" fill="#F28E2B" fill-opacity="0.12" stroke="#F28E2B" stroke-width="4"/>
<text x="1002" y="283" font-family="Arial" font-size="23" font-weight="700" fill="#16324F">Runtime guidance</text>
<text x="1002" y="323" font-family="Arial" font-size="17" fill="#657786">step hint</text>
<text x="1002" y="350" font-family="Arial" font-size="17" fill="#657786">evidence verifier</text>
<line x1="1233" y1="322.5" x2="1268" y2="322.5" stroke="#16324F" stroke-width="4" marker-end="url(#arrow)"/>
<rect x="1280" y="235" width="245" height="175" rx="18" fill="#168AAD" fill-opacity="0.12" stroke="#168AAD" stroke-width="4"/>
<text x="1302" y="283" font-family="Arial" font-size="23" font-weight="700" fill="#16324F">Real tool loop</text>
<text x="1302" y="323" font-family="Arial" font-size="17" fill="#657786">agent continues</text>
<text x="1302" y="350" font-family="Arial" font-size="17" fill="#657786">new artifacts recorded</text>
<rect x="80" y="515" width="1640" height="105" rx="16" fill="#F4F7FA" stroke="#D8E0E8"/>
<text x="110" y="558" font-family="Arial" font-size="20" font-weight="700" fill="#16324F">核心证据边界</text>
<text x="350" y="558" font-family="Arial" font-size="19" fill="#657786">经验以 artifact-state transition 表示；先做状态约束，再做相似度与可靠性排序</text>
</svg>