<svg xmlns="http://www.w3.org/2000/svg" width="1800" height="720" viewBox="0 0 1800 720">
<defs><marker id="arrow" markerWidth="10" markerHeight="10" refX="8" refY="3" orient="auto"><path d="M0,0 L0,6 L9,3 z" fill="#16324F"/></marker></defs>
<rect width="100%" height="100%" fill="white"/><text x="80" y="72" font-family="Arial" font-size="34" font-weight="700" fill="#16324F">Boundary: counterexample-driven applicability evolution</text>
<text x="80" y="112" font-family="Arial" font-size="19" fill="#657786">From global reliability to condition-aware experience governance</text>
<rect x="80" y="235" width="245" height="175" rx="18" fill="#16324F" fill-opacity="0.12" stroke="#16324F" stroke-width="4"/>
<text x="102" y="283" font-family="Arial" font-size="23" font-weight="700" fill="#16324F">Parent store</text>
<text x="102" y="323" font-family="Arial" font-size="17" fill="#657786">v4-clean read-only</text>
<text x="102" y="350" font-family="Arial" font-size="17" fill="#657786">train/test hash split</text>
<line x1="333" y1="322.5" x2="368" y2="322.5" stroke="#16324F" stroke-width="4" marker-end="url(#arrow)"/>
<rect x="380" y="235" width="245" height="175" rx="18" fill="#F28E2B" fill-opacity="0.12" stroke="#F28E2B" stroke-width="4"/>
<text x="402" y="283" font-family="Arial" font-size="23" font-weight="700" fill="#16324F">Counterfactuals</text>
<text x="402" y="323" font-family="Arial" font-size="17" fill="#657786">preserve semantics</text>
<text x="402" y="350" font-family="Arial" font-size="17" fill="#657786">change semantics</text>
<text x="402" y="377" font-family="Arial" font-size="17" fill="#657786">break preconditions</text>
<line x1="633" y1="322.5" x2="668" y2="322.5" stroke="#16324F" stroke-width="4" marker-end="url(#arrow)"/>
<rect x="680" y="235" width="245" height="175" rx="18" fill="#7B61A8" fill-opacity="0.12" stroke="#7B61A8" stroke-width="4"/>
<text x="702" y="283" font-family="Arial" font-size="23" font-weight="700" fill="#16324F">Proposer + Auditor</text>
<text x="702" y="323" font-family="Arial" font-size="17" fill="#657786">paired observations</text>
<text x="702" y="350" font-family="Arial" font-size="17" fill="#657786">real tool probes</text>
<line x1="933" y1="322.5" x2="968" y2="322.5" stroke="#16324F" stroke-width="4" marker-end="url(#arrow)"/>
<rect x="980" y="235" width="245" height="175" rx="18" fill="#D1495B" fill-opacity="0.12" stroke="#D1495B" stroke-width="4"/>
<text x="1002" y="283" font-family="Arial" font-size="23" font-weight="700" fill="#16324F">Rule update</text>
<text x="1002" y="323" font-family="Arial" font-size="17" fill="#657786">keep / add condition</text>
<text x="1002" y="350" font-family="Arial" font-size="17" fill="#657786">split / quarantine</text>
<line x1="1233" y1="322.5" x2="1268" y2="322.5" stroke="#16324F" stroke-width="4" marker-end="url(#arrow)"/>
<rect x="1280" y="235" width="245" height="175" rx="18" fill="#168AAD" fill-opacity="0.12" stroke="#168AAD" stroke-width="4"/>
<text x="1302" y="283" font-family="Arial" font-size="23" font-weight="700" fill="#16324F">Frozen eval</text>
<text x="1302" y="323" font-family="Arial" font-size="17" fill="#657786">1162 OEA tasks</text>
<text x="1302" y="350" font-family="Arial" font-size="17" fill="#657786">ReAct fallback</text>
<rect x="80" y="515" width="1640" height="105" rx="16" fill="#F4F7FA" stroke="#D8E0E8"/>
<text x="110" y="558" font-family="Arial" font-size="20" font-weight="700" fill="#16324F">核心证据边界</text>
<text x="350" y="558" font-family="Arial" font-size="19" fill="#657786">只使用真实 rollout 与工具结果；不读取 gold tool sequence / answer；测试前冻结规则</text>
</svg>